<?xml version="1.0" encoding="UTF-8"?><svg id="Layer_1" xmlns="http://www.w3.org/2000/svg" viewBox="0 0 1080 1080"><defs><style>.cls-1{fill:#89543a;}</style></defs><path class="cls-1" d="m632.01,274.02c-10.8,10.46-21.2,21.27-30.66,33.01-7.6,9.43-15.15,18.85-21.97,28.9-11.53,16.97-21.13,34.96-28.54,53.97-6.39,16.38-11.4,33.37-13.63,50.87-1.94,15.31-2.39,30.78-1.83,46.27.53,14.75,2.51,29.24,5.87,43.59.37,1.58.85,3.23.05,4.76-1.89.79-2.46-.69-3.28-1.65-10.22-12.11-16.99-26.18-23-40.67-5.36-12.93-8.81-26.3-11.25-40.14-2.49-14.11-2.29-28.15-2.12-42.27.31-25.3,6.15-49.5,16.48-72.38,10-22.15,21.96-43.37,35.73-63.45,13.49-19.69,27.83-38.8,41.14-58.61,8.55-12.72,16.27-26.01,23.79-39.42,9.37-16.7,16.88-34.22,23.77-52,5.5-14.21,10.83-28.54,13.44-43.3,4.16-1.41,4.46,2.09,5.39,3.64,7.5,12.49,15.45,24.8,21.77,37.89,7.24,15,14.71,29.92,20.81,45.49,5.63,14.37,11.34,28.72,15.44,43.58,1.9,6.88,3.14,14.11,5.06,20.94,3.11,11.07,4.45,22.38,6.32,33.56,3.16,18.92,4.02,38.12,3.63,57.34-.43,21-3.88,41.46-8.92,61.86-7.12,28.84-20.24,54.62-36.66,79.07-14.48,21.57-32.04,40.4-50.65,58.31-7.78,7.48-16.87,13.42-25.42,20-6.83,5.26-13.78,10.59-15.49,20.07-1.25,6.91,1.76,12.85,3.59,19.03,2.72,9.18,6.37,18.1,8.72,27.35,1.53,6.01.54,12.2-3.86,17.31-2.77-2.04-3.57-5.01-4.95-7.61-10.45-19.72-19.66-39.99-26.65-61.21-5.87-17.83-9.39-36.16-12.36-54.7-3.61-22.5-3.09-45.03-1.42-67.47,1.28-17.21,5.23-34.15,10.89-50.66,3.38-9.84,7.19-19.5,11.16-29.06,6.77-16.33,15.21-31.84,24.61-46.89,7.68-12.29,17.14-23.25,25.04-35.33,0,0,.09-.14.09-.14l-.13.16Z"/><path class="cls-1" d="m325.38,842.98c5.6-.64,10.4,1.74,15.22,3.35,15.85,5.29,32.1,9.07,48.53,11.44,24.67,3.55,49.56,4.9,74.49,3.11,13.44-.96,27.08-1.45,40.16-4.3,10.6-2.31,21.48-3.76,31.84-7.51,7.14-2.58,14.79-3.72,22.11-5.85,15.65-4.55,31.18-9.53,46.87-13.93,8.93-2.5,18.07-4.24,27.13-6.26,17.03-3.8,34.36-5.79,51.73-5.96,21.72-.21,43.23,2.21,63.83,9.92,3.06,1.14,6.31,1.76,9.44,2.72,6.94,2.13,9.35,5.29,8.28,12.55-1.78,12.03-5.61,23.5-11.73,34.04-16.29,28.02-40.29,47.73-68.28,63.24-10.92,6.05-22.49,10.72-34.05,15.01-9.17,3.4-18.94,5.69-28.46,8.39-22.44,6.38-45.47,9.48-68.52,10.67-24.23,1.25-48.61.72-72.62-5.08-10.12-2.44-20.66-3.13-30.74-6.28-16.92-5.29-33.66-10.6-49.61-18.81-13.26-6.83-25.74-14.52-36.91-24.15-8.44-7.28-15.98-15.54-21.98-25.21-4.57-7.37-9.69-14.35-12.87-22.51-1.69-4.34-2.01-8.95-3.03-13.38-1.06-4.65-1.97-9.04-1.19-13.74.05-.32.16-.63.36-1.45Z"/><path class="cls-1" d="m764.03,828.87c-7.16-5.64-14.67-11.04-22.91-15.37-9.44-4.96-19.14-9.42-29.37-12.26-10.13-2.82-20.58-4.28-31.07-5.74-18.42-2.58-36.49-1.25-54.59,1.29-11.22,1.57-22.4,3.76-33.43,6.35-10.7,2.51-21.22,5.81-31.78,8.91-18.71,5.49-37.37,11.04-56.71,14.06-11.15,1.74-22.08,5.08-33.26,6.31-11.46,1.27-22.81,3.34-34.33,4.15-14.8,1.04-29.57,2.88-44.39,3.27-16.28.43-32.59-.41-48.89-.68-3.66-.06-7.33-.03-10.99-.11-7.83-.19-9.33-1.95-8.34-9.56,1.58-12.26,5.64-23.86,11.28-34.64,6.3-12.03,14.92-22.58,24.6-32.23,17.39-17.35,37.69-30.05,60.14-39.88,19.39-8.48,39.58-13.97,60.04-18.84,15.25-3.63,30.76-5.31,46.31-7,15.09-1.64,30.2-2.14,45.22-.71,11.96,1.13,23.98,1.81,35.86,4.72,7.56,1.85,15.55,2.69,23.19,4.61,15.08,3.78,30,8.41,44.18,14.71,16.79,7.46,33.32,15.62,47.5,27.73,7.91,6.75,15.18,14.06,21.51,22.3,12.63,16.44,21.11,34.45,21.17,55.66,0,.83-.11,1.66-.21,2.48-.01.1-.25.17-.74.47Z"/><path class="cls-1" d="m453.91,160.56c-1.45,7.2-6.27,12.75-8.36,19.48-5.27,17.06-12.49,33.53-14.78,51.48-.73,5.68-2.71,11.19-3.55,16.87-2.83,19.08-3.29,38.28-2.78,57.56.43,16.46,3.3,32.52,6.12,48.68,2.88,16.49,8.76,31.89,14.61,47.37,9.76,25.79,24.33,49.15,37.62,73.11,11.19,20.18,23.47,39.77,35.42,59.52,8.1,13.39,16.82,26.42,24.65,39.96,8.42,14.55,17.03,28.99,25.39,43.57,7.6,13.26,14.07,27.06,21.13,40.58,3.25,6.23,5.55,12.95,8.44,19.39,2.23,4.98.96,6.54-4.19,5.81-7.34-1.04-14.68-1.73-22.07-2.23-15.79-1.07-31.55-.84-47.24,1.23-7.49.99-9.76-.04-13.28-6.7-8.82-16.67-19.45-32.17-30.66-47.3-12.6-17.01-25.92-33.44-38.91-50.15-9.95-12.79-19.48-25.92-28.55-39.37-11.09-16.45-20.9-33.62-28.61-51.89-4.7-11.13-9.27-22.43-11.91-34.24-5.05-22.56-7.6-45.37-6.88-68.62.84-27.29,4.57-54.11,10.11-80.78,3.05-14.67,7.69-28.84,12.14-43.12,4.84-15.53,11.57-30.14,19.27-44.31,6.63-12.21,14.71-23.51,23.45-34.38,5.77-7.17,12.9-12.76,19.24-19.23,1.17-1.19,2.31-2.03,4.15-2.31Z"/><path class="cls-1" d="m516.1,113.7c-.47,5.08-3.22,9.36-5.06,13.98-4.88,12.27-8.94,24.78-12.33,37.57-8.46,31.97-9.63,64.32-5.71,96.92,1.55,12.88,4.83,25.47,8.6,37.93,2.52,8.34,5.39,16.51,8.8,24.49.91,2.13.45,3.78-.39,5.59-11.14,24.13-17.71,49.41-19.13,75.99-.07,1.33-.15,2.66-.33,3.98-.06.43-.45.81-.92,1.6-4.13-2.13-4.86-6.56-6.33-9.95-6.57-15.19-11.52-30.97-16.06-46.89-3.68-12.91-5.47-26.09-7.2-39.35-2.21-16.85-1.56-33.77-1.96-50.66-.18-7.55,1.71-15.01,2.2-22.6.62-9.63,2.48-19.29,4.81-28.68,4.19-16.91,9.34-33.63,17.05-49.29,8.35-16.96,17.94-33.27,30.02-47.96.94-1.15,1.71-2.43,2.57-3.66l1.36.99Z"/><path class="cls-1" d="m553.11,524.42c-7.89-18.32-6.94-37.65-5.81-56.99.63,19.13,3.32,38.03,5.81,56.99Z"/></svg>